<mxfile host="app.diagrams.net" agent="Mozilla/5.0 (Windows NT 10.0; Win64; x64; rv:138.0) Gecko/20100101 Firefox/138.0" version="27.0.6">
  <diagram name="Page-1" id="PlHkvlHvchDJfqZWaILF">
    <mxGraphModel dx="3015" dy="1090" grid="1" gridSize="10" guides="1" tooltips="1" connect="1" arrows="1" fold="1" page="1" pageScale="1" pageWidth="850" pageHeight="1100" math="0" shadow="0">
      <root>
        <mxCell id="0" />
        <mxCell id="1" parent="0" />
        <mxCell id="vtylUol7zqGE8ByLnbU8-35" value="" style="rounded=0;whiteSpace=wrap;html=1;" parent="1" vertex="1">
          <mxGeometry x="-266" y="308" width="136" height="32" as="geometry" />
        </mxCell>
        <mxCell id="2" value="User Interface" style="whiteSpace=wrap;strokeWidth=2;" parent="1" vertex="1">
          <mxGeometry x="-233" y="128" width="162" height="54" as="geometry" />
        </mxCell>
        <mxCell id="vtylUol7zqGE8ByLnbU8-20" style="edgeStyle=orthogonalEdgeStyle;rounded=0;orthogonalLoop=1;jettySize=auto;html=1;entryX=0.5;entryY=1;entryDx=0;entryDy=0;" parent="1" source="3" target="2" edge="1">
          <mxGeometry relative="1" as="geometry" />
        </mxCell>
        <mxCell id="vtylUol7zqGE8ByLnbU8-24" style="edgeStyle=orthogonalEdgeStyle;rounded=0;orthogonalLoop=1;jettySize=auto;html=1;" parent="1" source="3" target="vtylUol7zqGE8ByLnbU8-23" edge="1">
          <mxGeometry relative="1" as="geometry" />
        </mxCell>
        <mxCell id="3" value="Spring Boot Application" style="whiteSpace=wrap;strokeWidth=2;" parent="1" vertex="1">
          <mxGeometry x="-266" y="254" width="228" height="54" as="geometry" />
        </mxCell>
        <mxCell id="4" value="Páginas Web" style="whiteSpace=wrap;strokeWidth=2;" parent="1" vertex="1">
          <mxGeometry x="150" y="254" width="135" height="54" as="geometry" />
        </mxCell>
        <mxCell id="vtylUol7zqGE8ByLnbU8-15" style="edgeStyle=orthogonalEdgeStyle;rounded=0;orthogonalLoop=1;jettySize=auto;html=1;entryX=1;entryY=0.5;entryDx=0;entryDy=0;" parent="1" source="6" target="7" edge="1">
          <mxGeometry relative="1" as="geometry" />
        </mxCell>
        <mxCell id="5" value="RabbitMQ - OcorrênciaQueue" style="whiteSpace=wrap;strokeWidth=2;" parent="1" vertex="1">
          <mxGeometry x="-277" y="381.01" width="250" height="54" as="geometry" />
        </mxCell>
        <mxCell id="6" value="Ollama Model (llama3.2)" style="whiteSpace=wrap;strokeWidth=2;" parent="1" vertex="1">
          <mxGeometry x="101" y="513" width="233" height="54" as="geometry" />
        </mxCell>
        <mxCell id="vtylUol7zqGE8ByLnbU8-17" style="edgeStyle=orthogonalEdgeStyle;rounded=0;orthogonalLoop=1;jettySize=auto;html=1;entryX=0;entryY=0.5;entryDx=0;entryDy=0;" parent="1" source="7" target="6" edge="1">
          <mxGeometry relative="1" as="geometry" />
        </mxCell>
        <mxCell id="vtylUol7zqGE8ByLnbU8-21" style="edgeStyle=orthogonalEdgeStyle;rounded=0;orthogonalLoop=1;jettySize=auto;html=1;entryX=0.5;entryY=1;entryDx=0;entryDy=0;exitX=0.5;exitY=0;exitDx=0;exitDy=0;" parent="1" source="7" target="5" edge="1">
          <mxGeometry relative="1" as="geometry" />
        </mxCell>
        <mxCell id="vtylUol7zqGE8ByLnbU8-22" value="&lt;div&gt;Leitura de Mensagens&lt;/div&gt;" style="edgeLabel;html=1;align=center;verticalAlign=middle;resizable=0;points=[];" parent="vtylUol7zqGE8ByLnbU8-21" vertex="1" connectable="0">
          <mxGeometry x="-0.1261" y="-4" relative="1" as="geometry">
            <mxPoint x="68" y="-4" as="offset" />
          </mxGeometry>
        </mxCell>
        <mxCell id="K5GVM5hk7p2Z48brDcIH-11" style="edgeStyle=orthogonalEdgeStyle;rounded=0;orthogonalLoop=1;jettySize=auto;html=1;entryX=0.5;entryY=0;entryDx=0;entryDy=0;" edge="1" parent="1" source="7" target="K5GVM5hk7p2Z48brDcIH-10">
          <mxGeometry relative="1" as="geometry" />
        </mxCell>
        <mxCell id="K5GVM5hk7p2Z48brDcIH-12" value="&lt;div&gt;Envio de Mensagens&lt;/div&gt;" style="edgeLabel;html=1;align=center;verticalAlign=middle;resizable=0;points=[];" vertex="1" connectable="0" parent="K5GVM5hk7p2Z48brDcIH-11">
          <mxGeometry x="0.24" y="1" relative="1" as="geometry">
            <mxPoint x="55" y="-12" as="offset" />
          </mxGeometry>
        </mxCell>
        <mxCell id="7" value="Spring Consumer - Gerador de PDFs" style="whiteSpace=wrap;strokeWidth=2;" parent="1" vertex="1">
          <mxGeometry x="-298" y="510" width="292" height="60" as="geometry" />
        </mxCell>
        <mxCell id="8" value="HTTP Requests" style="curved=1;startArrow=none;endArrow=block;exitX=0.5;exitY=1;entryX=0.5;entryY=0.01;" parent="1" source="2" target="3" edge="1">
          <mxGeometry relative="1" as="geometry">
            <Array as="points" />
          </mxGeometry>
        </mxCell>
        <mxCell id="9" value="" style="curved=1;startArrow=none;endArrow=block;exitX=1;exitY=0.5;entryX=0;entryY=0.5;entryDx=0;entryDy=0;exitDx=0;exitDy=0;" parent="1" source="3" target="4" edge="1">
          <mxGeometry relative="1" as="geometry">
            <Array as="points">
              <mxPoint x="40" y="250" />
              <mxPoint x="20" y="310" />
              <mxPoint x="100" y="260" />
            </Array>
          </mxGeometry>
        </mxCell>
        <mxCell id="vtylUol7zqGE8ByLnbU8-19" value="Thymeleaf Rendering" style="edgeLabel;html=1;align=center;verticalAlign=middle;resizable=0;points=[];" parent="9" vertex="1" connectable="0">
          <mxGeometry x="0.3437" y="3" relative="1" as="geometry">
            <mxPoint x="8" y="-26" as="offset" />
          </mxGeometry>
        </mxCell>
        <mxCell id="10" value="Envio de mensagem" style="curved=1;startArrow=none;endArrow=block;exitX=0.75;exitY=1;entryX=0.766;entryY=0.005;exitDx=0;exitDy=0;entryDx=0;entryDy=0;entryPerimeter=0;" parent="1" source="3" target="5" edge="1">
          <mxGeometry x="-0.8098" y="54" relative="1" as="geometry">
            <Array as="points">
              <mxPoint x="-120" y="360" />
            </Array>
            <mxPoint as="offset" />
          </mxGeometry>
        </mxCell>
        <mxCell id="vtylUol7zqGE8ByLnbU8-25" style="edgeStyle=orthogonalEdgeStyle;rounded=0;orthogonalLoop=1;jettySize=auto;html=1;" parent="1" source="vtylUol7zqGE8ByLnbU8-23" edge="1">
          <mxGeometry relative="1" as="geometry">
            <mxPoint x="-270" y="281" as="targetPoint" />
          </mxGeometry>
        </mxCell>
        <mxCell id="vtylUol7zqGE8ByLnbU8-23" value="BD Oracle" style="whiteSpace=wrap;strokeWidth=2;" parent="1" vertex="1">
          <mxGeometry x="-590" y="254" width="178" height="54" as="geometry" />
        </mxCell>
        <mxCell id="vtylUol7zqGE8ByLnbU8-26" value="" style="verticalLabelPosition=bottom;html=1;verticalAlign=top;align=center;strokeColor=none;fillColor=#00BEF2;shape=mxgraph.azure.computer;pointerEvents=1;" parent="1" vertex="1">
          <mxGeometry x="-110" y="142.85" width="27" height="24.3" as="geometry" />
        </mxCell>
        <mxCell id="vtylUol7zqGE8ByLnbU8-27" value="" style="image;aspect=fixed;html=1;points=[];align=center;fontSize=12;image=img/lib/azure2/compute/Azure_Spring_Cloud.svg;" parent="1" vertex="1">
          <mxGeometry x="-83" y="266" width="30" height="30" as="geometry" />
        </mxCell>
        <mxCell id="vtylUol7zqGE8ByLnbU8-28" value="" style="image;aspect=fixed;html=1;points=[];align=center;fontSize=12;image=img/lib/azure2/compute/Azure_Spring_Cloud.svg;" parent="1" vertex="1">
          <mxGeometry x="-45" y="525" width="30" height="30" as="geometry" />
        </mxCell>
        <mxCell id="vtylUol7zqGE8ByLnbU8-29" value="" style="shape=image;html=1;verticalAlign=top;verticalLabelPosition=bottom;labelBackgroundColor=#ffffff;imageAspect=0;aspect=fixed;image=https://cdn0.iconfinder.com/data/icons/phosphor-regular-vol-3/256/horse-128.png" parent="1" vertex="1">
          <mxGeometry x="290" y="522" width="36" height="36" as="geometry" />
        </mxCell>
        <mxCell id="vtylUol7zqGE8ByLnbU8-30" value="" style="points=[];aspect=fixed;html=1;align=center;shadow=0;dashed=0;fillColor=#FF6A00;strokeColor=none;shape=mxgraph.alibaba_cloud.mq_message_queue;" parent="1" vertex="1">
          <mxGeometry x="-63" y="394.17" width="25" height="27.67" as="geometry" />
        </mxCell>
        <mxCell id="vtylUol7zqGE8ByLnbU8-33" value="" style="verticalLabelPosition=bottom;html=1;verticalAlign=top;strokeWidth=1;align=center;outlineConnect=0;dashed=0;outlineConnect=0;shape=mxgraph.aws3d.oracleDataCenter;fillColor=#ffffff;strokeColor=#5E5E5E;aspect=fixed;" parent="1" vertex="1">
          <mxGeometry x="-460" y="260.8" width="35" height="40.4" as="geometry" />
        </mxCell>
        <mxCell id="vtylUol7zqGE8ByLnbU8-34" value="&lt;div&gt;&lt;font style=&quot;font-size: 8px;&quot;&gt;- Spring Security (Autenticação)&lt;/font&gt;&lt;/div&gt;&lt;div align=&quot;left&quot;&gt;&lt;font style=&quot;font-size: 8px;&quot;&gt;- Actuator (Monitoramento)&lt;/font&gt;&lt;/div&gt;" style="text;html=1;align=center;verticalAlign=middle;resizable=0;points=[];autosize=1;strokeColor=none;fillColor=none;" parent="1" vertex="1">
          <mxGeometry x="-266" y="301.2" width="140" height="40" as="geometry" />
        </mxCell>
        <mxCell id="vtylUol7zqGE8ByLnbU8-36" value="&lt;div&gt;&lt;font style=&quot;font-size: 8px;&quot;&gt;Spring AI (Ollama Module)&lt;/font&gt;&lt;/div&gt;" style="rounded=0;whiteSpace=wrap;html=1;" parent="1" vertex="1">
          <mxGeometry x="-298" y="570" width="118" height="20" as="geometry" />
        </mxCell>
        <mxCell id="K5GVM5hk7p2Z48brDcIH-10" value="Telegram API" style="whiteSpace=wrap;strokeWidth=2;" vertex="1" parent="1">
          <mxGeometry x="-298" y="670" width="292" height="60" as="geometry" />
        </mxCell>
        <mxCell id="K5GVM5hk7p2Z48brDcIH-14" value="" style="shape=image;html=1;verticalAlign=top;verticalLabelPosition=bottom;labelBackgroundColor=#ffffff;imageAspect=0;aspect=fixed;image=https://cdn0.iconfinder.com/data/icons/social-media-2104/24/social_media_social_media_logo_docker-128.png" vertex="1" parent="1">
          <mxGeometry x="-298" y="353.01" width="28" height="28" as="geometry" />
        </mxCell>
        <mxCell id="K5GVM5hk7p2Z48brDcIH-15" value="" style="shape=image;html=1;verticalAlign=top;verticalLabelPosition=bottom;labelBackgroundColor=#ffffff;imageAspect=0;aspect=fixed;image=https://cdn0.iconfinder.com/data/icons/social-media-2104/24/social_media_social_media_logo_docker-128.png" vertex="1" parent="1">
          <mxGeometry x="-318" y="485" width="28" height="28" as="geometry" />
        </mxCell>
        <mxCell id="K5GVM5hk7p2Z48brDcIH-16" value="" style="shape=image;html=1;verticalAlign=top;verticalLabelPosition=bottom;labelBackgroundColor=#ffffff;imageAspect=0;aspect=fixed;image=https://cdn0.iconfinder.com/data/icons/social-media-2104/24/social_media_social_media_logo_docker-128.png" vertex="1" parent="1">
          <mxGeometry x="80" y="485" width="28" height="28" as="geometry" />
        </mxCell>
        <mxCell id="K5GVM5hk7p2Z48brDcIH-17" value="" style="shape=image;html=1;verticalAlign=top;verticalLabelPosition=bottom;labelBackgroundColor=#ffffff;imageAspect=0;aspect=fixed;image=https://cdn0.iconfinder.com/data/icons/social-media-2104/24/social_media_social_media_logo_docker-128.png" vertex="1" parent="1">
          <mxGeometry x="-290" y="232.8" width="28" height="28" as="geometry" />
        </mxCell>
      </root>
    </mxGraphModel>
  </diagram>
</mxfile>
